# xmcd
#
# Track frame offsets: 
#        150
#        18159
#        29910
#        44618
#        55338
#        73537
#        89337
#        101231
#        120283
#        136125
#        148459
#        160380
#        172933
#        178997
#
# Disc length: 2827 seconds
#
# Revision: 0
# Processed by: cddbd v1.5.1PL0 Copyright (c) Steve Scherf et al.
# Submitted via: ExactAudioCopy v0.95a5
#
DISCID=cd0b090e
DTITLE=Various Artist - Blues Greats - All Time Favorites
DYEAR=2003
DGENRE=Blues
TTITLE0=James Cotton - V-8 Ford Blues
TTITLE1=John Lee Hooker - Boogle Chillen
TTITLE2=Mississippi John Hurt - Candyman
TTITLE3=Lightning Slim - My Babe
TTITLE4=Mississippi Fred McDowell - What's The Matter
TTITLE5=John Lee Hooker - Serves Me Right To Suffer
TTITLE6=Memphis Slim - Lonesome
TTITLE7=Otis Rush and Little Walter - Walter's Blues
TTITLE8=Blind Sonny Terry - Chain Gang Blues
TTITLE9=John Lee Hooker - You Can Lead Me Baby
TTITLE10=Magic Sam - Funky G Street
TTITLE11=Big Joe Williams - Shakem' On Down
TTITLE12=Leadbelly - Big Fat Woman
TTITLE13=Big Joe Turner - Night Time Is The Right Time
EXTD=
EXTT0=
EXTT1=
EXTT2=
EXTT3=
EXTT4=
EXTT5=
EXTT6=
EXTT7=
EXTT8=
EXTT9=
EXTT10=
EXTT11=
EXTT12=
EXTT13=
PLAYORDER=
